<?xml version="1.0" standalone="no"?>
<!DOCTYPE svg PUBLIC "-//W3C//DTD SVG 20010904//EN"
 "http://www.w3.org/TR/2001/REC-SVG-20010904/DTD/svg10.dtd">
<svg version="1.0" xmlns="http://www.w3.org/2000/svg"
 width="2604.000000pt" height="2604.000000pt" viewBox="0 0 2604.000000 2604.000000"
 preserveAspectRatio="xMidYMid meet">
<metadata>
Created by potrace 1.14, written by Peter Selinger 2001-2017
</metadata>
<g transform="translate(0.000000,2604.000000) scale(0.100000,-0.100000)"
fill="#000000" stroke="none">
<path d="M1475 16182 c-96 -54 -229 -149 -304 -217 -67 -60 -142 -142 -224
-245 -28 -35 -108 -166 -139 -228 -18 -37 -36 -68 -40 -70 -5 -2 -8 -9 -8 -15
0 -7 -6 -24 -14 -39 -11 -21 -36 -85 -41 -108 -1 -3 -7 -18 -14 -35 -7 -16
-14 -37 -16 -45 -3 -8 -11 -40 -20 -70 -24 -80 -55 -218 -61 -270 -3 -24 -7
-47 -9 -50 -2 -3 -6 -37 -10 -75 -8 -89 -12 -112 -20 -125 -3 -5 -2 -10 3 -10
5 0 6 -17 2 -39 -8 -42 -5 -411 4 -506 8 -90 15 -147 20 -175 3 -14 7 -41 10
-60 2 -19 7 -51 11 -70 l7 -35 -25 30 c-43 50 -77 149 -112 325 -1 8 -6 40 -9
71 -4 31 -9 67 -11 79 -2 13 -7 76 -10 140 -3 65 -7 127 -10 139 -2 11 0 23 6
26 5 4 5 13 1 23 -5 9 -8 41 -6 69 1 29 -2 50 -7 47 -5 -3 -9 -12 -9 -20 0 -8
-4 -14 -8 -14 -12 0 -98 -183 -123 -262 -59 -184 -73 -281 -73 -498 0 -85 3
-182 7 -215 7 -54 10 -77 22 -150 9 -58 48 -211 56 -219 5 -6 9 -17 9 -27 0
-36 93 -227 124 -254 7 -5 23 -26 36 -45 59 -84 213 -238 355 -355 27 -22 57
-48 67 -57 10 -10 21 -18 24 -18 8 0 84 -63 80 -67 -6 -6 -119 40 -171 70 -27
15 -58 31 -67 34 -10 3 -18 9 -18 14 0 5 -6 9 -14 9 -8 0 -16 3 -18 8 -2 4
-28 26 -58 49 -120 92 -249 219 -374 367 l-58 69 7 -139 c3 -76 8 -152 10
-169 3 -16 7 -49 9 -73 5 -42 21 -134 32 -182 3 -14 7 -36 8 -50 2 -14 6 -32
9 -40 3 -8 18 -60 33 -115 15 -55 31 -107 35 -115 4 -8 17 -42 29 -75 21 -56
71 -171 89 -205 4 -8 25 -47 45 -87 20 -39 44 -77 52 -83 8 -7 14 -17 14 -22
0 -12 61 -102 72 -106 4 -2 8 -8 8 -13 0 -25 168 -207 226 -244 30 -19 57 -35
59 -35 3 0 35 -19 73 -42 78 -49 70 -44 220 -135 62 -37 125 -74 138 -81 48
-26 18 -21 -90 13 -59 19 -118 37 -129 39 -12 3 -60 17 -107 31 -47 14 -95 28
-108 31 -23 5 -23 4 -6 -28 88 -174 332 -383 739 -635 148 -92 189 -117 285
-170 19 -11 44 -19 55 -17 11 2 47 6 80 9 56 6 77 8 173 20 66 8 136 15 192
21 68 7 100 10 168 18 28 3 76 8 105 12 28 3 66 7 82 9 17 2 57 7 90 10 33 3
74 8 90 10 17 2 57 7 90 10 33 3 74 8 90 10 17 2 57 7 90 10 111 12 130 14
185 20 30 3 69 8 85 11 17 2 57 6 90 9 67 6 135 14 180 19 17 3 57 7 90 11 33
3 76 8 95 10 19 3 58 7 85 10 68 7 132 14 180 20 22 2 65 7 95 10 30 3 69 8
85 10 17 3 55 7 85 10 30 3 69 7 85 9 17 2 63 7 103 11 41 3 83 8 95 11 12 2
50 6 84 9 33 2 72 6 85 9 12 3 52 8 87 11 36 3 79 8 95 10 17 2 56 7 86 10 30
3 73 8 95 10 22 3 55 6 73 7 17 0 32 4 32 7 0 3 -28 17 -62 30 -35 13 -81 32
-103 42 -22 9 -105 45 -185 80 -80 35 -225 103 -322 151 -98 48 -182 88 -187
88 -5 0 -11 3 -13 8 -1 4 -25 19 -53 33 -63 33 -218 120 -325 182 -19 11 -55
32 -80 46 -51 28 -109 66 -127 81 -7 5 -15 10 -18 10 -4 0 -26 14 -50 30 -24
17 -49 30 -55 30 -6 0 -13 7 -16 15 -4 8 -10 15 -15 15 -11 0 -123 72 -127 83
-2 4 -8 7 -13 7 -9 0 -66 36 -79 50 -3 3 -36 27 -75 54 -38 26 -90 63 -115 82
-25 19 -53 37 -62 40 -10 4 -18 10 -18 14 0 4 -15 17 -32 28 -32 20 -191 142
-278 212 -52 43 -240 200 -257 215 -6 5 -44 39 -84 75 -88 78 -218 208 -274
272 -107 124 -245 308 -245 327 0 5 -4 11 -8 13 -7 2 -36 48 -97 150 -35 58
-138 261 -169 331 -9 20 -22 52 -30 70 -47 105 -94 238 -152 422 -24 76 -28
92 -38 133 -2 9 -9 29 -15 45 -6 15 -8 27 -6 27 2 0 1 10 -4 23 -8 21 -42 173
-55 247 -2 14 -7 32 -10 40 -2 8 -7 33 -10 55 -3 22 -8 54 -11 70 -3 17 -7 44
-10 60 -3 17 -7 39 -9 50 -2 11 -7 47 -11 80 -3 33 -9 76 -11 95 -4 33 -10 84
-19 175 -4 43 -14 178 -20 285 -10 164 -4 603 10 763 4 37 5 67 3 66 -2 0 -16
-8 -33 -17z"/>
<path d="M5319 14923 c-1 -52 -31 -289 -45 -358 -3 -16 -7 -43 -9 -60 -1 -16
-5 -41 -9 -55 -3 -14 -8 -41 -11 -60 -6 -47 -15 -92 -20 -110 -2 -8 -7 -28
-10 -45 -10 -58 -56 -256 -79 -343 -8 -29 -15 -56 -15 -60 -6 -47 -142 -470
-184 -572 -6 -14 -11 -27 -12 -30 -5 -21 -21 -61 -43 -108 -14 -32 -26 -62
-28 -68 -5 -28 -209 -430 -225 -444 -3 -3 -23 -34 -44 -70 -40 -66 -119 -181
-162 -235 -97 -122 -129 -158 -218 -246 -92 -90 -105 -102 -182 -164 -40 -31
-73 -62 -73 -68 0 -6 3 -7 6 -4 4 4 19 -2 34 -13 16 -11 30 -20 33 -20 3 0 69
-36 148 -80 78 -44 144 -80 145 -80 2 0 27 -14 56 -31 29 -18 82 -48 118 -67
36 -19 83 -45 105 -57 121 -70 153 -87 178 -98 15 -6 27 -15 27 -19 0 -4 5 -8
11 -8 6 0 57 -26 112 -57 56 -32 120 -68 142 -80 22 -12 56 -30 75 -41 19 -10
98 -54 175 -97 77 -42 165 -91 195 -108 30 -17 69 -38 87 -48 l31 -18 25 37
c35 55 53 84 88 149 42 77 149 291 149 297 0 3 11 29 24 58 69 155 184 488
169 488 -3 0 0 7 7 15 7 8 9 15 6 15 -4 0 -2 8 3 19 6 10 13 32 16 50 3 17 12
59 20 93 16 70 23 106 31 158 2 19 9 58 14 85 30 158 43 484 27 695 -6 89 -29
257 -43 330 -3 14 -7 34 -9 45 -10 55 -38 158 -69 260 -58 192 -146 395 -248
574 -26 46 -48 86 -48 88 0 2 -5 9 -10 16 -6 7 -40 57 -76 112 -96 144 -190
263 -329 416 -47 52 -55 55 -56 22z"/>
<path d="M18934 13521 c-2 -2 -4 -618 -4 -1368 l0 -1363 194 0 c146 0 195 3
198 13 2 6 4 133 3 281 l0 268 40 46 c22 26 54 60 70 78 41 42 189 204 213
232 11 12 22 22 24 22 6 0 78 -107 78 -115 0 -8 44 -69 53 -73 4 -2 7 -8 7
-12 0 -5 63 -106 140 -225 77 -119 140 -219 140 -221 0 -3 5 -10 11 -17 21
-24 129 -197 129 -207 0 -6 4 -10 8 -10 4 0 16 -13 25 -30 l18 -30 235 0 c129
0 234 2 234 5 0 3 -36 60 -80 126 -44 67 -80 123 -80 124 0 2 -49 78 -110 169
-60 91 -110 168 -110 171 0 3 -5 11 -11 18 -6 7 -65 95 -131 197 -66 102 -153
234 -193 295 -52 80 -69 113 -61 121 6 6 111 114 233 240 406 418 443 457 443
463 0 4 -117 6 -261 6 l-261 0 -55 -60 c-30 -33 -95 -103 -143 -155 -48 -52
-100 -108 -116 -125 -15 -16 -70 -77 -123 -134 -53 -57 -107 -116 -121 -131
-14 -15 -65 -71 -115 -125 -49 -54 -97 -106 -107 -117 -9 -10 -18 -15 -20 -11
-3 4 -4 376 -4 826 1 528 -2 821 -9 825 -11 7 -374 9 -381 3z"/>
<path d="M23405 13380 c-77 -54 -144 -102 -150 -107 -5 -4 -29 -20 -52 -35
l-42 -28 0 -187 c0 -104 0 -213 0 -244 l-1 -55 -158 1 -158 1 0 -158 1 -158
157 0 c157 0 158 0 158 -22 0 -13 1 -284 1 -603 1 -532 3 -587 20 -654 33
-131 93 -223 184 -288 42 -29 149 -70 210 -79 71 -11 197 -12 218 -2 11 6 17
5 17 -2 0 -6 4 -8 10 -5 5 3 18 8 27 9 26 5 97 19 103 21 3 1 22 5 43 9 20 5
38 11 38 15 1 3 2 75 3 158 1 166 4 160 -54 139 -8 -3 -33 -8 -55 -12 -22 -3
-51 -8 -65 -11 -30 -5 -31 -5 -100 0 -72 6 -108 21 -146 63 -56 60 -58 83 -59
689 -1 303 1 556 3 563 3 9 60 12 241 12 l237 0 -2 153 c-1 83 -2 154 -3 157
0 3 -103 5 -228 4 -126 0 -232 1 -238 3 -6 2 -10 137 -9 378 0 206 -2 375 -5
374 -3 0 -69 -45 -146 -99z"/>
<path d="M11344 12857 c-6 -7 -37 -34 -69 -62 -32 -27 -63 -55 -69 -60 -33
-31 -124 -105 -129 -105 -3 0 -30 14 -59 31 -29 17 -54 31 -56 30 -1 -1 -27 7
-57 18 -99 37 -155 45 -305 45 -283 -2 -511 -117 -653 -331 -26 -39 -47 -78
-47 -86 0 -9 -4 -18 -9 -21 -8 -5 -25 -58 -37 -116 -4 -21 -14 -119 -16 -155
-1 -42 21 -174 33 -197 5 -10 7 -18 5 -18 -10 0 76 -157 98 -181 l22 -23 -49
-51 c-88 -91 -130 -193 -132 -320 -4 -179 74 -314 227 -395 33 -18 56 -36 51
-40 -8 -8 -61 -37 -208 -115 -49 -26 -97 -54 -105 -62 -11 -10 -15 -38 -16
-106 0 -91 12 -154 42 -209 8 -16 12 -28 9 -28 -9 0 36 -63 90 -125 46 -52
206 -153 258 -162 10 -2 30 -9 45 -17 35 -18 134 -41 222 -52 187 -24 413 -16
580 20 46 10 185 61 188 68 2 5 9 8 16 8 17 0 123 75 161 114 58 59 101 131
120 199 2 4 3 8 5 10 3 4 10 41 14 81 3 21 7 40 10 43 3 3 1 16 -5 30 -6 17
-6 22 3 17 6 -4 9 -3 6 2 -3 5 -9 29 -12 54 -10 73 -13 86 -36 129 -36 71 -88
127 -153 165 -45 27 -187 88 -187 81 0 -3 -12 0 -27 6 -16 6 -37 13 -48 15
-38 7 -60 12 -85 18 -29 7 -69 14 -125 21 -47 7 -80 13 -80 15 0 1 -18 3 -40
4 -22 2 -53 6 -70 9 -16 4 -54 9 -83 12 -30 3 -86 12 -125 19 -40 8 -75 12
-79 9 -5 -2 -8 1 -8 6 0 6 -11 11 -25 11 -14 0 -33 4 -43 9 -9 5 -34 17 -55
27 -46 23 -95 75 -101 106 -3 13 -5 25 -6 28 -6 17 4 79 17 105 23 45 54 76
67 66 24 -19 160 -59 256 -76 42 -7 193 -8 270 -1 76 6 208 43 280 78 115 56
268 211 295 298 4 14 11 30 15 35 22 30 44 156 44 249 -1 131 -7 169 -46 269
-18 45 -33 85 -33 88 0 4 27 28 60 55 33 27 66 54 73 61 7 7 39 33 72 59 58
45 68 59 53 66 -5 2 -52 56 -106 121 -54 64 -99 117 -100 117 -1 -1 -7 -6 -13
-13z m-589 -453 c84 -27 161 -93 195 -168 31 -68 40 -117 37 -207 -5 -140 -69
-249 -177 -303 -60 -31 -91 -38 -177 -41 -79 -3 -162 14 -221 46 -86 47 -161
164 -165 258 -1 28 -5 51 -9 51 -4 0 -6 6 -3 13 2 6 6 32 9 57 8 63 10 69 34
120 47 96 145 168 257 187 17 3 31 6 33 8 9 8 142 -7 187 -21z m-260 -1669
c28 -2 61 -7 75 -10 14 -3 41 -8 60 -10 31 -3 131 -18 200 -30 14 -3 40 -9 58
-14 18 -5 35 -10 37 -10 3 -1 21 -8 41 -16 20 -8 39 -15 41 -15 13 0 83 -57
83 -67 0 -7 4 -13 9 -13 9 0 25 -54 24 -85 -2 -76 -24 -119 -82 -159 -86 -60
-176 -80 -366 -80 -169 0 -256 16 -356 66 -98 48 -148 116 -155 208 l-3 55 97
97 97 98 45 -5 c25 -3 68 -7 95 -10z"/>
<path d="M8488 12755 c-1 -1 -23 -6 -48 -9 -39 -6 -100 -19 -135 -30 -40 -12
-177 -76 -185 -87 -3 -3 -15 -11 -28 -18 -35 -19 -130 -110 -177 -172 -40 -51
-117 -181 -122 -204 -1 -5 -11 -37 -23 -70 -12 -33 -24 -69 -27 -80 -2 -11 -5
-24 -7 -30 -2 -5 -6 -26 -9 -45 -4 -19 -10 -48 -13 -65 -8 -36 -9 -334 -1
-390 14 -103 61 -260 98 -327 8 -13 14 -25 14 -28 0 -3 18 -32 40 -65 132
-205 353 -338 615 -371 64 -8 255 -8 320 0 187 24 390 122 535 259 l70 67 -50
46 c-79 73 -137 126 -181 165 l-42 37 -57 -54 c-140 -133 -313 -186 -530 -162
-125 14 -214 55 -294 137 -73 75 -73 76 -104 152 -22 55 -47 163 -47 206 0 9
157 12 676 12 372 0 678 2 681 5 11 11 9 269 -3 352 -59 412 -288 676 -654
754 -50 11 -303 23 -312 15z m286 -359 c91 -31 123 -51 188 -118 77 -78 118
-177 123 -293 l3 -61 -496 1 -497 0 3 30 c7 77 62 234 84 243 4 2 8 8 8 13 0
9 38 55 75 91 30 29 102 78 115 78 7 0 24 6 38 14 78 41 238 41 356 2z"/>
<path d="M12755 12753 c-95 -19 -182 -56 -250 -108 -37 -27 -95 -85 -112 -111
-7 -11 -23 -35 -36 -55 -14 -20 -27 -42 -30 -50 -3 -8 -5 47 -5 121 0 74 -1
144 -1 155 -1 19 -8 20 -186 20 -168 0 -186 -1 -191 -17 -3 -10 -3 -22 1 -27
3 -5 1 -12 -5 -16 -6 -4 -8 -10 -5 -15 4 -7 6 -62 4 -165 0 -11 0 -121 0 -245
0 -124 0 -232 0 -240 -1 -108 0 -1109 0 -1120 1 -8 1 -32 1 -52 l-1 -38 201 0
200 0 0 138 c0 335 8 969 13 987 2 11 8 43 11 70 29 221 135 376 282 411 38 9
182 11 216 2 133 -33 224 -160 253 -352 3 -21 8 -42 10 -46 3 -5 1 -11 -5 -15
-6 -4 -7 -12 -3 -18 4 -7 7 -273 8 -592 l0 -580 200 0 199 0 2 525 c1 289 5
550 9 580 4 30 8 66 9 80 10 112 70 262 133 328 109 114 333 135 461 42 72
-52 132 -156 148 -257 3 -20 8 -45 11 -57 4 -11 7 -275 9 -586 2 -311 3 -586
4 -612 l0 -48 199 0 200 0 -1 645 c-1 666 -4 725 -43 860 -10 33 -17 61 -17
62 3 5 -61 118 -89 158 -73 108 -215 200 -354 228 -82 17 -278 15 -325 -3 -3
-1 -9 -3 -15 -4 -11 -1 -67 -22 -105 -39 -113 -51 -255 -200 -306 -322 -8 -20
-17 -36 -18 -34 -2 2 -14 29 -27 59 -31 76 -93 167 -148 218 -48 44 -165 109
-215 118 -16 3 -34 8 -38 11 -11 6 -225 12 -253 6z"/>
<path d="M15868 12755 c-2 -2 -25 -5 -51 -6 -27 -2 -50 -7 -53 -11 -3 -5 -9
-6 -14 -3 -4 2 -27 -1 -51 -8 -24 -8 -47 -14 -52 -15 -21 -4 -107 -31 -123
-40 -11 -5 -50 -24 -87 -43 -79 -39 -191 -122 -253 -187 -48 -50 -51 -57 -30
-69 8 -4 36 -27 63 -49 26 -23 84 -71 128 -107 l80 -66 53 55 c128 129 272
193 449 200 169 7 311 -37 386 -120 32 -35 73 -116 83 -161 10 -52 16 -175 7
-176 -4 -1 -154 -3 -333 -4 -179 -2 -345 -6 -370 -9 -95 -12 -115 -16 -210
-40 -80 -21 -177 -75 -237 -135 -61 -59 -70 -71 -102 -136 -37 -76 -45 -119
-45 -235 0 -125 3 -150 29 -225 34 -97 70 -152 149 -228 78 -74 222 -147 321
-162 11 -2 38 -7 60 -11 73 -13 216 -9 310 10 26 5 91 30 103 39 6 5 12 7 12
4 0 -7 113 58 143 82 41 33 119 117 148 160 16 25 30 43 30 40 3 -9 7 -48 14
-144 4 -55 9 -107 11 -115 1 -8 3 -23 3 -33 1 -16 15 -17 184 -15 l182 3 0
645 c0 675 -2 715 -45 854 -18 58 -59 137 -95 185 -37 48 -134 133 -191 166
-66 39 -175 79 -243 90 -18 3 -38 8 -44 12 -10 6 -313 14 -319 8z m538 -1183
c-9 -140 -48 -231 -143 -332 -131 -141 -372 -200 -563 -138 -96 31 -175 114
-194 203 -29 136 19 235 141 292 95 44 157 51 471 52 l293 1 -5 -78z"/>
<path d="M18130 12740 c-73 -19 -160 -58 -205 -92 -46 -35 -155 -150 -150
-159 3 -4 2 -9 -3 -11 -12 -5 -52 -77 -52 -93 0 -8 -3 -16 -7 -18 -5 -3 -8 77
-8 176 l0 182 -190 0 c-104 1 -194 0 -200 -2 -7 -2 -9 -328 -9 -956 1 -523 2
-958 3 -964 1 -10 47 -13 196 -13 107 0 195 3 196 8 0 4 2 255 3 557 2 303 6
564 9 582 48 267 221 427 457 425 67 -1 186 -27 196 -43 3 -5 15 -9 27 -9 18
0 37 29 112 175 87 169 89 175 70 189 -22 16 -133 60 -180 71 -62 15 -199 12
-265 -5z"/>
<path d="M21593 12745 c-283 -51 -477 -196 -613 -460 -27 -52 -47 -95 -45 -95
2 0 -3 -19 -11 -42 -9 -24 -17 -50 -19 -58 -1 -8 -8 -33 -13 -55 -19 -71 -27
-157 -26 -295 0 -148 6 -205 30 -295 9 -33 17 -65 18 -72 1 -7 5 -16 9 -19 4
-4 7 -14 7 -21 0 -16 79 -185 90 -193 3 -3 20 -26 37 -51 61 -88 195 -197 304
-247 68 -31 212 -71 282 -78 77 -8 258 -8 312 0 102 15 197 44 290 88 108 51
167 92 260 180 l60 58 -46 42 c-97 92 -211 193 -221 197 -5 2 -29 -14 -51 -36
-133 -125 -267 -177 -452 -176 -174 1 -291 46 -394 151 -50 51 -104 146 -115
203 -2 13 -7 31 -10 39 -3 8 -7 38 -10 67 l-5 52 675 0 c372 0 679 2 682 6 11
11 6 318 -6 380 -18 94 -20 104 -43 174 -52 160 -160 315 -279 404 -36 26 -70
52 -77 57 -7 6 -17 10 -23 10 -6 0 -21 6 -33 14 -29 18 -128 51 -197 66 -81
17 -283 20 -367 5z m316 -340 c70 -20 111 -38 111 -47 0 -5 7 -8 16 -8 16 0
134 -108 134 -123 0 -5 8 -21 19 -35 33 -48 52 -122 54 -207 l2 -60 -495 0
c-489 0 -495 0 -493 20 3 25 11 75 16 95 9 42 45 129 56 140 4 3 12 16 19 30
29 56 160 170 195 170 9 0 18 4 21 8 4 7 68 25 131 35 42 7 160 -3 214 -18z"/>
<path d="M24958 12755 c-2 -1 -24 -5 -49 -8 -212 -25 -401 -137 -487 -289 -51
-90 -74 -215 -58 -313 4 -22 9 -52 12 -68 6 -41 50 -128 85 -171 58 -70 182
-148 304 -191 28 -9 57 -20 65 -23 8 -3 18 -6 23 -7 4 -2 8 -3 10 -5 1 -1 11
-3 22 -5 11 -2 36 -8 55 -14 49 -15 243 -71 255 -74 6 -1 15 -5 20 -8 6 -3 29
-11 53 -19 23 -7 42 -17 42 -22 0 -5 4 -7 9 -4 5 3 14 -1 21 -9 7 -8 18 -15
24 -16 6 0 24 -16 40 -35 81 -98 65 -235 -36 -316 -57 -46 -101 -64 -176 -72
-18 -2 -35 -5 -37 -7 -8 -9 -137 1 -205 16 -32 6 -123 38 -130 45 -3 3 -22 14
-44 25 -49 25 -153 126 -195 188 -36 53 -31 53 -87 1 -6 -5 -35 -30 -64 -55
-29 -24 -64 -54 -79 -67 -14 -13 -36 -30 -48 -39 -14 -9 -20 -21 -16 -31 8
-21 99 -129 137 -161 15 -14 34 -31 41 -38 8 -7 18 -13 23 -13 6 0 12 -4 14
-9 12 -32 235 -137 328 -155 14 -2 32 -7 40 -10 38 -14 303 -29 324 -18 5 3
27 6 50 8 155 10 335 94 444 205 47 47 120 160 126 192 1 7 5 21 9 32 14 43
19 83 23 168 7 182 -54 314 -199 434 -32 27 -207 113 -228 113 -9 0 -19 3 -23
7 -6 7 -115 38 -166 49 -14 2 -32 7 -40 11 -8 3 -24 7 -35 8 -27 4 -177 45
-187 51 -4 3 -16 7 -25 9 -135 31 -219 121 -207 221 3 27 9 51 14 54 5 3 10
12 12 20 5 25 83 82 131 95 4 2 8 3 10 5 5 4 45 10 93 15 29 2 56 5 60 6 5 1
11 1 14 0 3 -1 25 -3 50 -5 128 -9 237 -73 350 -206 12 -14 25 -32 30 -39 7
-12 15 -10 47 12 60 42 158 119 161 129 2 4 9 8 15 8 7 0 18 9 25 21 11 17 11
25 -3 46 -46 70 -186 203 -214 203 -5 0 -11 3 -13 8 -7 16 -198 100 -198 86 0
-2 -9 0 -20 6 -10 6 -34 13 -52 16 -35 5 -285 13 -290 9z"/>
</g>
</svg>
