<svg id="Layer_1" data-name="Layer 1" xmlns="http://www.w3.org/2000/svg" viewBox="0 0 651.13 171.45"><defs><style>.cls-1{fill:#fff;}.cls-2{fill:#044dcc;}</style></defs><path class="cls-1" d="M236.45,120.48H202.54c.39,7.84,5,12.83,13.32,12.83a15.29,15.29,0,0,0,12.45-5.58l6.86,6.17a24.66,24.66,0,0,1-19.4,8.43c-16,0-23.23-11.56-23.23-24.79,0-12.94,7.15-25.29,22.44-25.29,14.9,0,21.76,11.17,21.76,23.82A38.27,38.27,0,0,1,236.45,120.48Zm-9.22-7.35v-.4c.3-6.17-4-12.15-12.35-12.15-8.13,0-11.95,6.37-12.54,12.55Z"/><path class="cls-1" d="M288.09,148.11c0,10-8.92,14.9-21.46,14.9-13.43,0-22.54-5.68-22.54-15.09a15.12,15.12,0,0,1,.29-2.84l8.43-4.51c-4.31-1.77-7.45-4.9-7.45-10.39a11.66,11.66,0,0,1,4.61-9.51,15.87,15.87,0,0,1-3.92-10.88c0-10.48,8.72-17.54,19.4-17.54A20.84,20.84,0,0,1,277,95.58l7.05-6.07,5.3,6.27-6.86,5.68a16.77,16.77,0,0,1,2.25,8.72c0,10.2-7.74,16.86-19,16.86a23,23,0,0,1-10.39-2.25,5,5,0,0,0-1.86,3.82c0,4.21,5,5.19,11.76,6.08C278,136.35,288.09,137.82,288.09,148.11Zm-9.9,1.57c0-5.19-7.64-5.68-14.6-6.66-1.47-.2-2.94-.39-4.41-.69l-5,4.8a4.67,4.67,0,0,0-.1,1.18c0,4.61,4.81,7.35,12.94,7.35,7.65,0,11.17-2.35,11.17-6ZM256,109.79c0,5.3,3.34,9.41,9.51,9.41s9.31-4.11,9.31-9.31c0-5.59-3.63-9.31-9.31-9.31S256,104.4,256,109.79Z"/><path class="cls-1" d="M367.77,111.56v29.89h-10V114.6c0-6.57-1.57-13.63-9.31-13.63-9.6,0-10.29,10.1-10.29,20.29v20.19h-10V113.91c0-5.29-1.17-12.94-9-12.94-9.81,0-10.59,10.1-10.59,20.29v20.19h-10V93.13h9.51v7.94a14.05,14.05,0,0,1,13.62-8.82c5.79,0,11.47,2.45,14.22,10.58,3.62-8,9.31-10.58,15.48-10.58C362.87,92.25,367.77,101.36,367.77,111.56Z"/><path class="cls-1" d="M420.2,111.07v30.38h-9.12l-.69-8A17.17,17.17,0,0,1,395,142.33c-10.39,0-17.45-6.27-17.45-15.58,0-5.29,2.26-9.21,6.27-11.47,3.24-1.76,7.55-2.65,12.75-2.65H410.3v-1.56c0-6.37-3.83-10.1-11.18-10.1-4.9,0-9.11,1.57-13.42,6.47l-7.26-6c5.69-6.47,13.23-9.21,21.37-9.21C412.75,92.25,420.2,99.21,420.2,111.07Zm-9.9,10.19V120H398a15.05,15.05,0,0,0-7.65,1.66,5.84,5.84,0,0,0-2.84,5.2c0,4.31,3.33,7.45,9.12,7.45,7.59,0,13.67-5.5,13.67-13Z"/><path class="cls-1" d="M465,94.7l-4.71,9a13.15,13.15,0,0,0-6.07-1.57c-6,0-11.57,4.21-11.57,14.6v24.7h-9.9V93.13h10v9.31a14.91,14.91,0,0,1,13.82-10.19A15.27,15.27,0,0,1,465,94.7Z"/><path class="cls-1" d="M473.31,141.45V73.14h9.89v41.75l20.1-21.76h13.32l-17.44,17.94L519,141.45H507.12l-15.19-23.62-8.73,9.51v14.11Z"/><path class="cls-1" d="M565.53,120.48H531.62c.39,7.84,5,12.83,13.33,12.83a15.3,15.3,0,0,0,12.44-5.58l6.86,6.17a24.66,24.66,0,0,1-19.4,8.43c-16,0-23.23-11.56-23.23-24.79,0-12.94,7.15-25.29,22.44-25.29,14.9,0,21.76,11.17,21.76,23.82A38.27,38.27,0,0,1,565.53,120.48Zm-9.22-7.35v-.4c.3-6.17-4-12.15-12.35-12.15-8.13,0-12,6.37-12.54,12.55Z"/><path class="cls-1" d="M601,101H589v26.46c0,3.34.69,6.77,6,6.77a20.48,20.48,0,0,0,6-1.08V141a27.74,27.74,0,0,1-8.33,1.37c-7.45,0-13.53-3.72-13.53-14V101h-7.93V93.13h7.93V81l9.9-6.86v19h12Z"/><path class="cls-1" d="M607.07,131.94l6.86-5.78a15.25,15.25,0,0,0,13.63,8.14c5.58,0,9-2.65,9-6.47,0-4.71-5.19-6-10.88-7.55-7.54-2-16.56-4.41-16.56-14.31,0-9.6,8.82-13.72,17.64-13.72s14.21,4,17.55,9.11l-6.37,5c-3-4.31-6.28-6.66-11.37-6.66-4.71,0-8.14,2-8.14,5.39,0,3.92,4.61,5,10,6.37,7.94,1.86,17.93,4.31,17.93,15.29,0,9.41-7.54,15.58-18.91,15.58C616.87,142.33,610.21,136.84,607.07,131.94Z"/><g id="Group_46" data-name="Group 46"><path id="Path_8" data-name="Path 8" class="cls-2" d="M140.75,138.69c2.91-4.26,35.81-55.82-7.62-101.38,0,0-4.1,56.6-34.53,78Z"/><path id="Path_9" data-name="Path 9" class="cls-2" d="M37.79,6.2S31,65.06,63.74,97.75c0,0,29.07,29.1,72.91,46l-86.52,9.6s-23.69-12.54-26.85-21.47l12.42,3.68L21.43,127s-16-13.94-15.92-42.34c0,0,10.37,13.78,19.87,15.59,0,0-15.13-10.39-17.59-19.72,0,0-7.36-19.74,3.15-35.68,0,0-.52,19.39,4.38,24.11C15.33,68.91,5.05,23.67,37.79,6.2Z"/></g></svg>