<svg xmlns="http://www.w3.org/2000/svg" width="30.718" height="30.718" viewBox="0 0 30.718 30.718"><defs><style>.a{fill:#fff;}</style></defs><path class="a" d="M15.359,0A15.359,15.359,0,1,0,30.718,15.359,15.361,15.361,0,0,0,15.359,0Zm7.013,11.975q.01.227.01.456a9.962,9.962,0,0,1-10.03,10.03h0a9.979,9.979,0,0,1-5.4-1.584,7.17,7.17,0,0,0,.841.049,7.074,7.074,0,0,0,4.379-1.509,3.529,3.529,0,0,1-3.293-2.449,3.514,3.514,0,0,0,1.592-.06,3.526,3.526,0,0,1-2.828-3.456c0-.016,0-.03,0-.045a3.5,3.5,0,0,0,1.6.441A3.528,3.528,0,0,1,8.144,9.142a10.009,10.009,0,0,0,7.267,3.683,3.527,3.527,0,0,1,6.007-3.215,7.071,7.071,0,0,0,2.239-.856,3.539,3.539,0,0,1-1.55,1.95,7.031,7.031,0,0,0,2.024-.555A7.164,7.164,0,0,1,22.372,11.975Zm0,0"/></svg>