<svg xmlns="http://www.w3.org/2000/svg" width="475" height="293" viewBox="0 0 475 293"><defs><style>.a{fill:#104ea1;opacity:0.2;}.b,.e{fill:#052753;}.c{fill:#fff;font-size:24px;}.c,.e{font-family:ProximaNova-Semibold, Proxima Nova;font-weight:600;}.d,.e{font-size:19px;}.d{font-family:ProximaNova-Light, Proxima Nova;font-weight:300;}</style></defs><rect class="a" width="475" height="293" rx="10"/><path class="b" d="M10,0H465a10,10,0,0,1,10,10V80a0,0,0,0,1,0,0H0a0,0,0,0,1,0,0V10A10,10,0,0,1,10,0Z"/><text class="c" transform="translate(31 47)"><tspan x="0" y="0">MT4</tspan></text><text class="d" transform="translate(31 110)"><tspan x="0" y="15">Elevate your trading with our powerful MT4 </tspan><tspan x="0" y="38">platform complete with tools and resources to </tspan><tspan x="0" y="61">efficiently analyze price dynamics and make </tspan><tspan x="0" y="84">trade transactions.</tspan></text><text class="e" transform="translate(31 255)"><tspan x="0" y="0">Get Started</tspan></text><g transform="translate(138.916 242.338)"><path class="b" d="M7.209.563A6.647,6.647,0,1,1,.563,7.209,6.646,6.646,0,0,1,7.209.563ZM4.1,8.389H7.209v1.9a.322.322,0,0,0,.549.228l3.064-3.08a.319.319,0,0,0,0-.453L7.759,3.9a.322.322,0,0,0-.549.228v1.9H4.1a.323.323,0,0,0-.322.322V8.067A.323.323,0,0,0,4.1,8.389Z" transform="translate(-0.563 -0.563)"/></g></svg>