<svg xmlns="http://www.w3.org/2000/svg" width="30.718" height="30.718" viewBox="0 0 30.718 30.718"><defs><style>.a{fill:#fff;}</style></defs><path class="a" d="M224.113,213.794l5-2.877-5-2.877Zm0,0" transform="translate(-210.667 -195.557)"/><path class="a" d="M15.359,0A15.359,15.359,0,1,0,30.718,15.359,15.361,15.361,0,0,0,15.359,0Zm9.6,15.375a25.35,25.35,0,0,1-.4,4.617,2.4,2.4,0,0,1-1.692,1.692,58.377,58.377,0,0,1-7.51.4s-5.992,0-7.51-.411a2.4,2.4,0,0,1-1.692-1.692,25.238,25.238,0,0,1-.4-4.617,25.333,25.333,0,0,1,.4-4.617A2.454,2.454,0,0,1,7.849,9.035a58.377,58.377,0,0,1,7.51-.4s6.008,0,7.51.411a2.4,2.4,0,0,1,1.692,1.692A24.056,24.056,0,0,1,24.956,15.375Zm0,0"/></svg>